- 
http://www.Speed.Cd      fast  and The Hottest Private Tracker on the net

   signup is open now

Please Seed back to make the speed Faster!!!

------------------nfo--------------------------
-[IMG]http://img846.imageshack.us/img846/3536/thereunion2011.jpg[/IMG]


[color=blue][size=5][b]The.Reunion.2011.DVDRip.XVID.AC3.HQ.Hive-CM8[/b][/size][/color]


[b]Thx Hive

CM8 Doing It Right The First Time :D


Source: DVD-R

Encode:
DVD had good quality, movie looks nice too, did the usual brightness, sharpness, rgb and denoise
got very nice
enjoy

Video: 720x400 @bitrate 1800 2pass
Audio: English AC3 5.1 @448
Sample: Yes, included
Subs: Yes, english in srt /subs[/b]
 
http://www.imdb.com/title/tt1792543/


General
Complete name                  : The.Reunion.2011.DVDRip.XVID.AC3.HQ.Hive-CM8.avi
Format                         : AVI
Format/Info                    : Audio Video Interleave
File size                      : 1.51 GiB
Duration                       : 1h 36mn
Overall bit rate               : 2 257 Kbps
Writing application            : Nandub v1.0rc2
Writing library                : Nandub build 1853/release

Video
ID                             : 0
Format                         : MPEG-4 Visual
Format profile                 : Advanced Simple@L5
Format settings, BVOP          : 2
Format settings, QPel          : Yes
Format settings, GMC           : No warppoints
Format settings, Matrix        : Default (H.263)
Muxing mode                    : Packed bitstream
Codec ID                       : XVID
Codec ID/Hint                  : XviD
Duration                       : 1h 36mn
Bit rate                       : 1 799 Kbps
Width                          : 720 pixels
Height                         : 400 pixels
Display aspect ratio           : 16:9
Frame rate                     : 23.976 fps
Color space                    : YUV
Chroma subsampling             : 4:2:0
Bit depth                      : 8 bits
Scan type                      : Progressive
Compression mode               : Lossy
Bits/(Pixel*Frame)             : 0.261
Stream size                    : 1.21 GiB (80%)
Writing library                : XviD 1.2.1 (UTC 2008-12-04)

Audio
ID                             : 1
Format                         : AC-3
Format/Info                    : Audio Coding 3
Mode extension                 : CM (complete main)
Codec ID                       : 2000
Duration                       : 1h 36mn
Bit rate mode                  : Constant
Bit rate                       : 448 Kbps
Channel(s)                     : 6 channels
Channel positions              : Front: L C R, Side: L R, LFE
Sampling rate                  : 48.0 KHz
Bit depth                      : 16 bits
Compression mode               : Lossy
Stream size                    : 308 MiB (20%)
Alignment                      : Split accross interleaves
Interleave, duration           : 42 ms (1.00 video frame)
Interleave, preload duration   : 500 ms


Plot:
After their deceased dad leaves them each $3 million on condition that
they go into business together, three estranged brothers team up to
rescue a kidnapped billionaire being held in Mexico.


Cast:
John Cena        ...    Sam Cleary
Ethan Embry      ...    Leo Cleary
Boyd Holbrook    ...    Douglas Cleary
Amy Smart        ...    Nina Cleary


[img]http://img821.imageshack.us/img821/3042/96301991.png[/img]
[img]http://img163.imageshack.us/img163/9445/reref.png[/img]
[img]http://img803.imageshack.us/img803/903/rerere.png[/img]
[img]http://img269.imageshack.us/img269/5463/rererere.png[/img]
[img]http://img267.imageshack.us/img267/5989/rerererere.png[/img]
[img]http://img528.imageshack.us/img528/3254/rererererere.png[/img]
[img]http://img440.imageshack.us/img440/6195/rerererererere.png[/img]



Greetz

ViSiON,SPK,SANTi,3LT0N,FUSiON,YanKeeS,MAGNET,T0XiC,LKRG,FANTASIA-PLAY,FANTASIA-M,FLAWL3SS,
WBZ,BHRG,NOVA,D2U,THC,Vik,Rapeseed,SAFC,goldadvance,MEMORY100,KaN1vE,Unevano,Pinnz,Wayne,
Mr Hive,and all P2P groups
Great Work Guys :D

LOOKING FOR ANYTHING YOU WANT TO LOOK AND SOUND BETTER

CM8@hushmail.com